<svg width="12" height="20" viewBox="0 0 12 20" fill="none" xmlns="http://www.w3.org/2000/svg">
<path d="M5.99997 19.75C4.31024 19.75 2.92948 19.4948 1.85768 18.9846C0.785892 18.4743 0.25 17.8128 0.25 17C0.25 16.5128 0.4548 16.0798 0.8644 15.701C1.27402 15.3221 1.83972 15.0109 2.5615 14.7673L2.99225 16.1961C2.67687 16.3115 2.41212 16.4413 2.19802 16.5856C1.98392 16.7298 1.84483 16.8679 1.78073 17C1.94611 17.3564 2.43809 17.6538 3.25668 17.8923C4.07527 18.1308 4.98971 18.25 5.99997 18.25C7.00382 18.25 7.91922 18.1308 8.74615 17.8923C9.57308 17.6538 10.0692 17.3564 10.2346 17C10.1705 16.8679 10.0314 16.7314 9.8173 16.5904C9.6032 16.4493 9.33846 16.3179 9.02308 16.1961L9.46345 14.7673C10.1852 15.0109 10.7468 15.3221 11.148 15.701C11.5493 16.0798 11.75 16.5128 11.75 17C11.75 17.8128 11.2141 18.4743 10.1423 18.9846C9.07048 19.4948 7.68971 19.75 5.99997 19.75ZM5.99997 13.8443C6.29997 13.275 6.63587 12.7228 7.00767 12.1875C7.37947 11.6522 7.75256 11.141 8.12692 10.6538C8.75641 9.83459 9.25929 9.09293 9.63558 8.42883C10.0119 7.76473 10.2 6.93844 10.2 5.94998C10.2 4.78588 9.79103 3.79484 8.97307 2.97688C8.15511 2.15893 7.16407 1.74995 5.99997 1.74995C4.83587 1.74995 3.84484 2.15893 3.02687 2.97688C2.20892 3.79484 1.79995 4.78588 1.79995 5.94998C1.79995 6.93844 1.9897 7.76473 2.3692 8.42883C2.74868 9.09293 3.24996 9.83459 3.87302 10.6538C4.24739 11.141 4.62047 11.6522 4.99227 12.1875C5.36407 12.7228 5.69997 13.275 5.99997 13.8443ZM5.99997 16.4423C5.83587 16.4423 5.68523 16.3881 5.54805 16.2798C5.41088 16.1714 5.30897 16.032 5.2423 15.8615C4.83332 14.7422 4.34678 13.8035 3.78268 13.0452C3.21858 12.2868 2.67434 11.5602 2.14997 10.8654C1.64229 10.1705 1.20704 9.45059 0.844225 8.70573C0.481408 7.96086 0.3 7.04228 0.3 5.94998C0.3 4.35383 0.850958 3.00479 1.95287 1.90288C3.05479 0.80096 4.40382 0.25 5.99997 0.25C7.59612 0.25 8.94516 0.80096 10.0471 1.90288C11.149 3.00479 11.7 4.35383 11.7 5.94998C11.7 7.04228 11.5227 7.96086 11.1682 8.70573C10.8137 9.45059 10.3743 10.1705 9.84997 10.8654C9.34227 11.5602 8.80221 12.2868 8.22978 13.0452C7.65734 13.8035 7.16663 14.7422 6.75765 15.8615C6.69098 16.032 6.58907 16.1714 6.4519 16.2798C6.31472 16.3881 6.16407 16.4423 5.99997 16.4423ZM5.99997 7.77688C6.50637 7.77688 6.93746 7.59899 7.29322 7.24323C7.64899 6.88746 7.82687 6.45638 7.82687 5.94998C7.82687 5.44358 7.64899 5.01249 7.29322 4.65673C6.93746 4.30096 6.50637 4.12308 5.99997 4.12308C5.49357 4.12308 5.06249 4.30096 4.70672 4.65673C4.35096 5.01249 4.17308 5.44358 4.17308 5.94998C4.17308 6.45638 4.35096 6.88746 4.70672 7.24323C5.06249 7.59899 5.49357 7.77688 5.99997 7.77688Z" fill="#4F3236"/>
</svg>
