<svg width="24" height="24" viewBox="0 0 24 24" fill="none" xmlns="http://www.w3.org/2000/svg">
<mask id="mask0_4_123" style="mask-type:alpha" maskUnits="userSpaceOnUse" x="0" y="0" width="24" height="24">
<rect width="24" height="24" fill="#D9D9D9"/>
</mask>
<g mask="url(#mask0_4_123)">
<path d="M11.9808 13.5C11.5718 13.5 11.2196 13.3522 10.9241 13.0567C10.6285 12.7612 10.4808 12.409 10.4808 12C10.4808 11.591 10.6285 11.2388 10.9241 10.9433C11.2196 10.6478 11.5718 10.5 11.9808 10.5C12.3897 10.5 12.742 10.6478 13.0375 10.9433C13.333 11.2388 13.4807 11.591 13.4807 12C13.4807 12.409 13.333 12.7612 13.0375 13.0567C12.742 13.3522 12.3897 13.5 11.9808 13.5ZM11.9808 20.5C9.80512 20.5 7.91539 19.7856 6.31156 18.3567C4.70771 16.9279 3.78399 15.1423 3.54041 13H5.07113C5.3237 14.7269 6.10223 16.1587 7.40673 17.2952C8.71121 18.4317 10.2359 19 11.9808 19C13.9308 19 15.5849 18.3208 16.9433 16.9625C18.3016 15.6042 18.9808 13.95 18.9808 12C18.9808 10.05 18.3016 8.39584 16.9433 7.03751C15.5849 5.67917 13.9308 5.00001 11.9808 5.00001C10.8885 5.00001 9.86474 5.24263 8.90961 5.72788C7.95449 6.21313 7.13206 6.88076 6.44231 7.73076H9.05768V9.23073H3.98083V4.15386H5.48078V6.52311C6.29231 5.56542 7.2641 4.82216 8.39615 4.29331C9.5282 3.76446 10.7231 3.50003 11.9808 3.50003C13.1607 3.50003 14.266 3.72311 15.2965 4.16928C16.327 4.61543 17.2256 5.22183 17.9923 5.98848C18.7589 6.75515 19.3653 7.65368 19.8115 8.68408C20.2576 9.71448 20.4807 10.8196 20.4807 11.9995C20.4807 13.1793 20.2576 14.2846 19.8115 15.3154C19.3653 16.3461 18.7589 17.2449 17.9923 18.0115C17.2256 18.7782 16.327 19.3846 15.2965 19.8307C14.266 20.2769 13.1607 20.5 11.9808 20.5Z" fill="#4F3236"/>
</g>
</svg>
