<svg width="27" height="26" viewBox="0 0 27 26" fill="none" xmlns="http://www.w3.org/2000/svg">
<mask id="mask0_4_135" style="mask-type:alpha" maskUnits="userSpaceOnUse" x="0" y="0" width="27" height="26">
<rect width="27" height="26" fill="#D9D9D9"/>
</mask>
<g mask="url(#mask0_4_135)">
<path d="M12.8077 21.1249C12.525 21.1249 12.2885 21.0333 12.0981 20.8499C11.9077 20.6666 11.8125 20.4388 11.8125 20.1666V13.8958L5.51472 6.19166C5.29838 5.91387 5.26701 5.62498 5.42061 5.32499C5.57421 5.025 5.83346 4.875 6.19836 4.875H20.8016C21.1665 4.875 21.4258 5.025 21.5794 5.32499C21.733 5.62498 21.7016 5.91387 21.4853 6.19166L15.1875 13.8958V20.1666C15.1875 20.4388 15.0923 20.6666 14.9019 20.8499C14.7115 21.0333 14.475 21.1249 14.1923 21.1249H12.8077ZM13.5 13.325L19.0687 6.49997H7.93125L13.5 13.325Z" fill="white"/>
</g>
</svg>
