<svg width="148" height="144" viewBox="0 0 148 144" fill="none" xmlns="http://www.w3.org/2000/svg">
<mask id="mask0_3_24" style="mask-type:alpha" maskUnits="userSpaceOnUse" x="0" y="0" width="148" height="144">
<rect width="148" height="143.87" fill="#D9D9D9"/>
</mask>
<g mask="url(#mask0_3_24)">
<path d="M67.525 93.2156L102.367 59.3463L93.5791 50.804L67.525 76.1311L54.575 63.5425L45.7875 72.0848L67.525 93.2156ZM74 131.881C59.7138 128.384 47.9201 120.416 38.6187 107.977C29.3173 95.5385 24.6666 81.726 24.6666 66.5398V29.9729L74 11.9892L123.333 29.9729V66.5398C123.333 81.726 118.683 95.5385 109.381 107.977C100.08 120.416 88.2861 128.384 74 131.881ZM74 119.292C84.6888 115.995 93.5277 109.401 100.517 99.5099C107.506 89.6189 111 78.6288 111 66.5398V38.2154L74 24.7276L37 38.2154V66.5398C37 78.6288 40.4944 89.6189 47.4833 99.5099C54.4722 109.401 63.3111 115.995 74 119.292Z" fill="#FAC4A6"/>
</g>
</svg>
