<svg width="17" height="17" viewBox="0 0 17 17" fill="none" xmlns="http://www.w3.org/2000/svg">
<g opacity="0.5">
<mask id="mask0_2_58" style="mask-type:alpha" maskUnits="userSpaceOnUse" x="0" y="0" width="17" height="17">
<rect width="17" height="17" fill="#D9D9D9"/>
</mask>
<g mask="url(#mask0_2_58)">
<path d="M11.4041 9.42083L10.3771 8.39375C10.4833 7.83889 10.3239 7.31944 9.89894 6.83542C9.47394 6.35139 8.92498 6.1625 8.25206 6.26875L7.22498 5.24167C7.42567 5.14722 7.62932 5.07639 7.83592 5.02917C8.04251 4.98194 8.26387 4.95833 8.49998 4.95833C9.3854 4.95833 10.138 5.26823 10.7578 5.88802C11.3776 6.50781 11.6875 7.26042 11.6875 8.14583C11.6875 8.38195 11.6639 8.6033 11.6166 8.8099C11.5694 9.01649 11.4986 9.22014 11.4041 9.42083ZM13.6708 11.6521L12.6437 10.6604C13.0923 10.3181 13.4908 9.94323 13.839 9.53594C14.1873 9.12865 14.4854 8.66528 14.7333 8.14583C14.143 6.95347 13.296 6.00608 12.1922 5.30365C11.0883 4.60122 9.85762 4.25 8.49998 4.25C8.15762 4.25 7.82116 4.27361 7.4906 4.32083C7.16005 4.36806 6.8354 4.43889 6.51665 4.53333L5.41873 3.43542C5.90276 3.23472 6.39859 3.0842 6.90623 2.98385C7.41387 2.88351 7.94512 2.83333 8.49998 2.83333C10.2826 2.83333 11.8705 3.32622 13.2635 4.31198C14.6566 5.29774 15.666 6.5757 16.2916 8.14583C16.0201 8.84236 15.663 9.48872 15.2203 10.0849C14.7776 10.6811 14.2611 11.2035 13.6708 11.6521ZM14.025 16.0083L11.05 13.0688C10.6368 13.1986 10.2206 13.296 9.80154 13.3609C9.38245 13.4259 8.94859 13.4583 8.49998 13.4583C6.71734 13.4583 5.12949 12.9655 3.73644 11.9797C2.34338 10.9939 1.33401 9.71597 0.708313 8.14583C0.95623 7.52014 1.26908 6.93872 1.64685 6.40156C2.02463 5.86441 2.45554 5.38333 2.93956 4.95833L0.991646 2.975L1.98331 1.98333L15.0166 15.0167L14.025 16.0083ZM3.93123 5.95C3.58887 6.25694 3.27602 6.5934 2.99269 6.95938C2.70935 7.32535 2.46734 7.72083 2.26665 8.14583C2.85692 9.3382 3.70397 10.2856 4.80779 10.988C5.91161 11.6905 7.14234 12.0417 8.49998 12.0417C8.73609 12.0417 8.9663 12.0269 9.19061 11.9974C9.41491 11.9679 9.64512 11.9354 9.88123 11.9L9.24373 11.2271C9.11387 11.2625 8.98991 11.2891 8.87185 11.3068C8.7538 11.3245 8.62984 11.3333 8.49998 11.3333C7.61456 11.3333 6.86196 11.0234 6.24217 10.4036C5.62238 9.78385 5.31248 9.03125 5.31248 8.14583C5.31248 8.01597 5.32133 7.89201 5.33904 7.77396C5.35675 7.6559 5.38331 7.53194 5.41873 7.40208L3.93123 5.95Z" fill="#1C1B1F"/>
</g>
</g>
</svg>
